<svg width="36" height="28" viewBox="0 0 36 28" fill="none" xmlns="http://www.w3.org/2000/svg">
<path d="M15.419 21.1512C15.4579 21.122 15.4676 21.0634 15.4482 21.0146C12.7675 15.2325 9.42327 9.78424 5.48344 4.78049C5.48344 4.78049 2.35306 7.76585 2.57666 10.761C2.62904 11.4515 2.81656 12.1249 3.1285 12.7426C3.44045 13.3603 3.87069 13.9103 4.39461 14.361C7.12641 17.0341 13.7371 20.4098 15.2732 21.1805C15.3218 21.2 15.3801 21.1902 15.419 21.1512ZM14.3982 23.4341C14.3788 23.3756 14.3204 23.3366 14.2524 23.3366L3.24746 23.7171C4.44322 25.8537 6.45561 27.5122 8.54577 27.0049C9.9943 26.6439 13.2608 24.3512 14.3399 23.5707C14.4274 23.5024 14.3982 23.4439 14.3982 23.4341ZM14.5635 22.4488C14.6218 22.361 14.5246 22.2829 14.5246 22.2829C9.69293 19.0049 0.321232 13.9707 0.321232 13.9707C0.0106033 14.9262 -0.0762931 15.9407 0.0672959 16.9353C0.210885 17.93 0.581092 18.878 1.14914 19.7057C1.7172 20.5335 2.46779 21.2186 3.3426 21.7079C4.2174 22.1971 5.19285 22.4774 6.19312 22.5268C6.35839 22.5561 12.7358 22.5268 14.4468 22.5171C14.4954 22.5073 14.5343 22.4878 14.5635 22.4488ZM15.2926 0.0097561C14.8163 0.0487805 13.5233 0.351219 13.5233 0.351219C10.6068 1.10244 9.91653 3.76585 9.91653 3.76585C9.38183 5.43415 9.92625 7.27805 9.92625 7.27805C10.8984 11.6098 15.6815 18.7415 16.712 20.2341C16.78 20.3122 16.8384 20.2829 16.8384 20.2829C16.8967 20.2634 16.9453 20.2146 16.9453 20.1463C18.5397 4.22439 15.2926 0.0097561 15.2926 0.0097561ZM18.9382 20.2634C18.9966 20.2829 19.0646 20.2634 19.0938 20.2049C20.1535 18.6732 24.9074 11.5805 25.8795 7.26829C25.8795 7.26829 26.4045 5.18049 25.899 3.7561C25.899 3.7561 25.1796 1.05366 22.2631 0.341463C22.2631 0.341463 21.427 0.126829 20.5326 0C20.5326 0 17.2661 4.21463 18.8605 20.1366C18.8507 20.1951 18.8896 20.2439 18.9382 20.2634ZM21.5437 23.3463C21.5177 23.3516 21.4932 23.3621 21.4714 23.3772C21.4497 23.3923 21.4313 23.4117 21.4173 23.4341C21.4075 23.4927 21.4173 23.5415 21.4562 23.5805C22.5061 24.3415 25.7045 26.5854 27.2406 27.0146C27.2406 27.0146 30.089 27.9902 32.5583 23.7268L21.5437 23.3463ZM35.4943 13.9512C35.4943 13.9512 26.142 18.9951 21.3006 22.2732C21.252 22.3122 21.2228 22.3707 21.2423 22.4293C21.2423 22.4293 21.2909 22.5171 21.3589 22.5171C23.0894 22.5171 29.6418 22.5268 29.8168 22.4976C30.4682 22.4488 31.1098 22.3024 31.7125 22.0585C31.7125 22.0585 34.0457 21.3171 35.2512 18.6537C35.2512 18.6537 36.3303 16.4878 35.4943 13.9512ZM20.4159 21.1512C20.4548 21.1805 20.5132 21.1902 20.5618 21.161C22.1367 20.3707 28.6988 17.0244 31.4112 14.361C31.4112 14.361 33.1319 12.9756 33.2194 10.7415C33.4138 7.64878 30.3126 4.78049 30.3126 4.78049C30.3126 4.78049 24.5768 11.7561 20.3673 20.9756C20.3606 21.0066 20.3615 21.0389 20.3699 21.0695C20.3784 21.1001 20.3942 21.1281 20.4159 21.1512Z" fill="#CE0E2D"/>
</svg>
