<svg width="90" height="20" viewBox="0 0 90 20" fill="none" xmlns="http://www.w3.org/2000/svg">
<g clip-path="url(#clip0_1_6)">
<path d="M49.1243 6.39027H51.1282V11.8955C51.1282 14.6899 49.5688 16.2927 46.8522 16.2927C44.1638 16.2927 42.6186 14.7178 42.6186 11.9722V6.39724H44.6225V11.9094C44.6225 13.5401 45.4339 14.4112 46.8804 14.4112C48.3269 14.4112 49.1243 13.561 49.1243 11.9791V6.39027ZM37.8346 10.3206H33.3046V6.39027H31.3007V16.1464H33.3046V12.1812H37.8275V16.1464H39.8314V6.39027H37.8275V10.3206H37.8346ZM88.0172 6.39027V16.1324H89.9929V6.39027H88.0172ZM80.1497 11.9443H83.7977V10.1673H80.1497V8.16727H85.4418V6.39724H78.174V16.1394H85.6323V14.3624H80.1497V11.9443ZM72.2893 13.0941L70.0455 6.3833H68.4085L66.1646 13.0941L63.9843 6.39027H61.8534L65.2967 16.1394H66.9549L69.1987 9.73522L71.4426 16.1394H73.1148L76.5512 6.39027H74.4696L72.2893 13.0941ZM58.2901 6.44602L62.6013 16.1394H60.4986L59.6096 14.1115H55.0866L55.0231 14.2509L54.1905 16.1394H52.1443L56.4978 6.39027H58.2477L58.2901 6.44602ZM58.7699 12.1185L57.3446 8.8502L55.9263 12.1185L55.8275 12.3415H58.8616L58.7699 12.1185Z" fill="#24272A"/>
<path d="M11.5719 15.108C11.6002 15.0871 11.6072 15.0453 11.5931 15.0105C9.64746 10.8804 7.22021 6.98875 4.36065 3.41463C4.36065 3.41463 2.0886 5.54704 2.25089 7.68641C2.28891 8.17964 2.42501 8.66063 2.65142 9.10186C2.87783 9.54309 3.19011 9.93591 3.57038 10.2578C5.55313 12.1672 10.3512 14.5784 11.4661 15.1289C11.5014 15.1429 11.5437 15.1359 11.5719 15.108ZM10.8311 16.7387C10.8169 16.6969 10.7746 16.669 10.7252 16.669L2.73776 16.9408C3.60566 18.4669 5.06626 19.6516 6.58331 19.2892C7.63466 19.0314 10.0055 17.3937 10.7887 16.8362C10.8522 16.7875 10.8311 16.7456 10.8311 16.7387ZM10.951 16.0348C10.9933 15.9721 10.9228 15.9164 10.9228 15.9164C7.41593 13.5749 0.613889 9.97909 0.613889 9.97909C0.388433 10.6616 0.325363 11.3862 0.429581 12.0967C0.533799 12.8071 0.802497 13.4843 1.21479 14.0755C1.62709 14.6668 2.17188 15.1561 2.80681 15.5056C3.44175 15.8551 4.14974 16.0553 4.87575 16.0906C4.9957 16.1115 9.62447 16.0906 10.8663 16.0836C10.9016 16.0767 10.9298 16.0627 10.951 16.0348ZM11.4802 0.00696864C11.1345 0.0348432 10.196 0.250871 10.196 0.250871C8.0792 0.787456 7.57822 2.6899 7.57822 2.6899C7.19013 3.88153 7.58527 5.19861 7.58527 5.19861C8.29088 8.29268 11.7625 13.3868 12.5104 14.453C12.5598 14.5087 12.6021 14.4878 12.6021 14.4878C12.6445 14.4739 12.6797 14.439 12.6797 14.3902C13.8369 3.01742 11.4802 0.00696864 11.4802 0.00696864ZM14.1262 14.4739C14.1686 14.4878 14.218 14.4739 14.2391 14.4321C15.0082 13.338 18.4587 8.27178 19.1643 5.19164C19.1643 5.19164 19.5453 3.70035 19.1784 2.68293C19.1784 2.68293 18.6562 0.752613 16.5394 0.243902C16.5394 0.243902 15.9326 0.0905923 15.2834 0C15.2834 0 12.9126 3.01045 14.0698 14.3833C14.0627 14.4251 14.091 14.4599 14.1262 14.4739ZM16.0173 16.676C15.9985 16.6797 15.9806 16.6872 15.9649 16.698C15.9491 16.7088 15.9357 16.7226 15.9255 16.7387C15.9185 16.7805 15.9255 16.8153 15.9538 16.8432C16.7158 17.3868 19.0373 18.9895 20.1521 19.2962C20.1521 19.2962 22.2195 19.993 24.0118 16.9477L16.0173 16.676ZM26.1427 9.96516C26.1427 9.96516 19.3548 13.5679 15.8409 15.9094C15.8056 15.9373 15.7844 15.9791 15.7985 16.0209C15.7985 16.0209 15.8338 16.0836 15.8832 16.0836C17.1392 16.0836 21.895 16.0906 22.022 16.0697C22.4947 16.0348 22.9604 15.9303 23.3979 15.7561C23.3979 15.7561 25.0913 15.2265 25.9663 13.324C25.9663 13.324 26.7495 11.777 26.1427 9.96516ZM15.1988 15.108C15.227 15.1289 15.2693 15.1359 15.3046 15.115C16.4477 14.5505 21.2105 12.1603 23.1792 10.2578C23.1792 10.2578 24.4281 9.26829 24.4916 7.67247C24.6327 5.46341 22.3818 3.41463 22.3818 3.41463C22.3818 3.41463 18.2187 8.39721 15.1635 14.9826C15.1586 15.0047 15.1592 15.0278 15.1654 15.0496C15.1715 15.0715 15.183 15.0915 15.1988 15.108Z" fill="#CE0E2D"/>
</g>
<defs>
<clipPath id="clip0_1_6">
<rect width="90" height="20" fill="white"/>
</clipPath>
</defs>
</svg>
