<svg width="62" height="21" viewBox="0 0 62 21" fill="none" xmlns="http://www.w3.org/2000/svg">
<path d="M61.157 0H0V20.078H61.157V0Z" fill="#C8102E"/>
<path d="M18.98 9.26497C18.98 8.3003 18.9547 7.49463 18.904 6.84797C19.152 7.65597 19.3853 8.3353 19.604 8.88596L22.042 15.051H23.351L25.763 9.17596C26.019 8.53796 26.283 7.76197 26.555 6.84797C26.4883 7.7933 26.455 8.59897 26.455 9.26497V15.036H28.151V5.06396H25.851L23.481 10.884C23.2116 11.5504 22.9779 12.2307 22.781 12.922C22.6056 12.2272 22.38 11.5461 22.106 10.884L19.806 5.06396H17.416V15.036H18.986L18.98 9.26497Z" fill="white"/>
<path d="M32.164 12.3656H36.164L37.164 15.0386H39.01L35.01 5.05762H33.346L29.433 15.0386H31.19L32.164 12.3656ZM33.728 8.13662C33.88 7.69662 34.019 7.26362 34.149 6.83662C34.29 7.31462 34.435 7.75162 34.583 8.14662L35.65 11.0036H32.668L33.728 8.13662Z" fill="white"/>
<path d="M41.712 14.5658C42.5124 14.9877 43.4075 15.1977 44.312 15.1758C44.9414 15.1746 45.5687 15.1028 46.182 14.9618C46.8024 14.8227 47.406 14.6168 47.982 14.3477V10.1478H44.021V11.4708H46.33V13.4878C46.0277 13.5964 45.7161 13.677 45.399 13.7288C45.0716 13.7837 44.7401 13.8115 44.408 13.8118C43.7672 13.8373 43.1335 13.6697 42.589 13.3308C42.1124 13.0131 41.7451 12.5564 41.537 12.0228C41.304 11.419 41.1902 10.7758 41.202 10.1288C41.1824 9.41105 41.331 8.69871 41.636 8.04875C41.9014 7.50302 42.3252 7.04997 42.852 6.74875C43.4101 6.44298 44.0388 6.2895 44.675 6.30375C45.5756 6.32373 46.4602 6.54515 47.264 6.95175L47.698 5.64375C47.2327 5.41799 46.7442 5.24363 46.241 5.12375C45.7035 4.99574 45.1526 4.93229 44.6 4.93475C43.6874 4.9209 42.7843 5.12234 41.964 5.52275C41.1844 5.91418 40.5387 6.52853 40.109 7.28775C39.6312 8.16127 39.3954 9.14656 39.426 10.1418C39.4032 11.0722 39.6067 11.9943 40.019 12.8288C40.3973 13.5682 40.9898 14.1763 41.719 14.5738" fill="white"/>
<path d="M14.849 5.06104H12.137L11.145 6.55003L12.474 8.57703L14.849 5.06104Z" fill="white"/>
<path d="M56.148 13.605H51.9481V10.561H55.709V9.23099H51.9481V6.48299H55.9351L56.1 5.06299H50.225V15.037H56.0041L56.148 13.605Z" fill="white"/>
<path d="M5.07297 15.0559H7.70898L11.12 9.85592L7.82599 5.06592H5.05597L8.57397 9.96592L5.07297 15.0559Z" fill="white"/>
<path d="M14.841 15.059L12.466 11.543L11.137 13.57L12.129 15.059H14.841Z" fill="white"/>
</svg>
